<svg xmlns="http://www.w3.org/2000/svg" viewBox="0 0 346 222.33"><defs><style>.cls-1{fill:#342b16;}</style></defs><g id="Layer_2" data-name="Layer 2"><g id="Layer_1-2" data-name="Layer 1"><path class="cls-1" d="M234.84,222.33a18,18,0,0,1-12.73-30.73L285,128.76,17.83,126.25a18,18,0,1,1,.34-36l266,2.5-62-62A18,18,0,1,1,247.56,5.27l93.17,93.17,0,0h0A17.88,17.88,0,0,1,346,109.88a17.34,17.34,0,0,1-.11,3.67,17.88,17.88,0,0,1-4.27,9.44q-.45.51-.93,1l-93.08,93.08A18,18,0,0,1,234.84,222.33Z"/></g></g></svg>