<svg xmlns="http://www.w3.org/2000/svg" viewBox="0 0 345 344"><defs><style>.cls-1{fill:#342b16;}</style></defs><g id="Layer_2" data-name="Layer 2"><g id="Layer_1-2" data-name="Layer 1"><path class="cls-1" d="M327,344H138.5a18,18,0,0,1-18-18V288.62a18,18,0,0,1,36,0V308H309V36H156.5V55.38a18,18,0,0,1-36,0V18a18,18,0,0,1,18-18H327a18,18,0,0,1,18,18V326A18,18,0,0,1,327,344Z"/><path class="cls-1" d="M82,254a18,18,0,0,1-12.73-5.27l-64-64,0,0h0l0,0h0A17.89,17.89,0,0,1,0,173.18a18.2,18.2,0,0,1,.1-3.46,18,18,0,0,1,4.29-9.55c.3-.34.61-.67.93-1L69.27,95.27a18,18,0,0,1,25.46,25.46L61.09,154.36,255.15,156a18,18,0,0,1-.15,36h-.15l-193-1.63,32.9,32.9A18,18,0,0,1,82,254Z"/></g></g></svg>